<?xml version="1.0" encoding="utf-8"?>
<!-- Generator: Adobe Illustrator 26.0.2, SVG Export Plug-In . SVG Version: 6.00 Build 0)  -->
<svg version="1.1" xmlns="http://www.w3.org/2000/svg" xmlns:xlink="http://www.w3.org/1999/xlink" x="0px" y="0px"
	 viewBox="0 0 50 50" style="enable-background:new 0 0 50 50;" xml:space="preserve">
<style type="text/css">
	.st0{display:none;}
	.st1{display:inline;}
	.st2{fill:#FF0000;}
	.st3{fill:#FFFFFF;}
</style>
<g id="Layer_1" class="st0">
	<g class="st1">
		<polygon class="st2" points="22.2,29.6 30.6,24.7 22.2,19.9 		"/>
		<path class="st2" d="M1.4,11.3v26.9c0,5.8,4.7,10.5,10.5,10.5h26.9c5.8,0,10.5-4.7,10.5-10.5V11.3c0-5.8-4.7-10.5-10.5-10.5H11.9
			C6.1,0.7,1.4,5.5,1.4,11.3z M41.5,24.8c0,0,0,5.2-0.7,7.8c-0.4,1.4-1.5,2.5-2.8,2.8C35.5,36,25.4,36,25.4,36s-10.1,0-12.6-0.7
			c-1.4-0.4-2.5-1.5-2.8-2.8c-0.7-2.5-0.7-7.8-0.7-7.8s0-5.2,0.7-7.8c0.4-1.4,1.5-2.5,2.8-2.9c2.5-0.7,12.6-0.7,12.6-0.7
			s10.1,0,12.6,0.7c1.4,0.4,2.5,1.5,2.8,2.8h0C41.5,19.5,41.5,24.8,41.5,24.8z"/>
	</g>
</g>
<g id="Layer_2">
	<g>
		<path class="st3" d="M38.8,14.5c-0.3-0.8-0.7-1.4-1.3-2c-0.6-0.6-1.2-1-2-1.3c-0.6-0.2-1.6-0.5-3.3-0.6c-1.9-0.1-2.4-0.1-7.2-0.1
			c-0.6,0-1.1,0-1.6,0v0c-3.3,0-3.9,0-5.6,0.1c-1.7,0.1-2.7,0.4-3.3,0.6c-0.8,0.3-1.4,0.7-2,1.3c-0.6,0.6-1,1.2-1.3,2
			c-0.2,0.6-0.5,1.6-0.6,3.3c-0.1,1.9-0.1,2.4-0.1,7.2s0,5.3,0.1,7.2c0.1,1.7,0.4,2.7,0.6,3.3c0.3,0.8,0.7,1.4,1.3,2
			c0.6,0.6,1.2,1,2,1.3c0.6,0.2,1.6,0.5,3.3,0.6c1.9,0.1,2.4,0.1,7.2,0.1c4.7,0,5.3,0,7.2-0.1c1.7-0.1,2.7-0.4,3.3-0.6
			c0.8-0.3,1.4-0.7,2-1.3c0.6-0.6,1-1.2,1.3-2c0.2-0.6,0.5-1.6,0.6-3.3c0.1-1.9,0.1-2.4,0.1-7.2s0-5.3-0.1-7.2
			C39.3,16.1,39.1,15.2,38.8,14.5z M25,34.1c-5,0-9.1-4.1-9.1-9.1c0-5,4.1-9.1,9.1-9.1c0,0,0,0,0,0h0c0,0,0,0,0,0
			c5,0,9.1,4.1,9.1,9.1C34.1,30,30,34.1,25,34.1z M34.5,17.7c-1.2,0-2.1-1-2.1-2.1c0-1.2,1-2.1,2.1-2.1v0c1.2,0,2.1,1,2.1,2.1
			S35.6,17.7,34.5,17.7z"/>
		<path class="st3" d="M49,11.4c-0.2-1.9-0.5-3.2-1.2-4.6c-0.6-1.1-1.2-2-2.1-2.8c-1.6-1.5-3.5-2.4-5.8-2.8C38.8,1.1,38.6,1,32.8,1
			H25c-10,0-13,0-13.5,0.1C9.4,1.2,8.2,1.6,6.8,2.3C5.7,2.8,4.8,3.4,4,4.3c-1.5,1.6-2.4,3.5-2.8,5.8C1.1,11.2,1,11.5,1,17.2
			c0,1.9,0,4.4,0,7.8c0,10,0,12.9,0.1,13.5c0.2,2,0.5,3.3,1.1,4.6c1.3,2.6,3.7,4.6,6.6,5.4c1,0.3,2.1,0.4,3.5,0.5
			c0.6,0,6.7,0,12.7,0s12.1,0,12.7,0c1.6-0.1,2.6-0.2,3.6-0.5c2.9-0.7,5.3-2.7,6.6-5.4c0.7-1.3,1-2.7,1.1-4.5c0-0.4,0-7,0-13.6
			C49,18.4,49,11.8,49,11.4z M42.6,32.3c-0.1,1.9-0.4,3.2-0.8,4.3c-0.5,1.2-1.1,2.2-2,3.1c-1,1-2,1.6-3.1,2
			c-1.1,0.4-2.4,0.7-4.3,0.8c-1.9,0.1-2.5,0.1-7.3,0.1c-4.8,0-5.4,0-7.3-0.1c-1.9-0.1-3.2-0.4-4.3-0.8c-1.2-0.5-2.2-1.1-3.1-2
			c-1-1-1.6-2-2-3.1c-0.4-1.1-0.7-2.4-0.8-4.3c-0.1-1.9-0.1-2.5-0.1-7.3c0-4.8,0-5.4,0.1-7.3c0.1-1.9,0.4-3.2,0.8-4.3
			c0.5-1.2,1.1-2.2,2-3.1c1-1,2-1.6,3.1-2c1.1-0.4,2.4-0.7,4.3-0.8c1.9-0.1,2.5-0.1,7.3-0.1c0,0,0,0,0,0h0c0,0,0,0,0,0
			c4.8,0,5.4,0,7.3,0.1c1.9,0.1,3.2,0.4,4.3,0.8c1.2,0.5,2.2,1.1,3.1,2c1,1,1.6,2,2,3.1c0.4,1.1,0.7,2.4,0.8,4.3
			c0.1,1.9,0.1,2.5,0.1,7.3C42.7,29.8,42.7,30.4,42.6,32.3z"/>
		<circle class="st3" cx="25" cy="25" r="5.9"/>
	</g>
</g>
</svg>
