<svg id="Opensea" xmlns="http://www.w3.org/2000/svg" viewBox="0 0 90 90"><defs><style>.cls-1{fill:#fff;}</style></defs><path class="cls-1" d="M45,4.5A40.5,40.5,0,1,0,85.5,45,40.51,40.51,0,0,0,45,4.5ZM24.48,46.36l.17-.27L35.19,29.6a.36.36,0,0,1,.63,0c1.76,4,3.28,8.85,2.57,11.91a18.53,18.53,0,0,1-2.07,4.53c-.12.22-.25.45-.4.67a.37.37,0,0,1-.3.15H24.79A.36.36,0,0,1,24.48,46.36Zm47,5.67a.38.38,0,0,1-.22.34c-.82.35-3.61,1.64-4.77,3.25-3,4.12-5.23,10-10.29,10H35.05A13.56,13.56,0,0,1,21.51,52.05V51.8a.36.36,0,0,1,.36-.35H33.64a.4.4,0,0,1,.38.44,4,4,0,0,0,.43,2.26,4.12,4.12,0,0,0,3.71,2.3H44V51.91H38.22a.37.37,0,0,1-.3-.58l.21-.31c.54-.78,1.32-2,2.1-3.35a25.3,25.3,0,0,0,1.45-2.9c.08-.18.14-.36.22-.54s.22-.62.31-.91.15-.51.21-.75a11.48,11.48,0,0,0,.28-2.66c0-.36,0-.74-.05-1.1s-.06-.79-.11-1.19-.1-.7-.16-1C42.29,36,42.17,35.51,42,35l0-.2c-.09-.37-.18-.71-.29-1.07-.34-1.14-.71-2.25-1.11-3.28-.15-.42-.31-.81-.48-1.2-.25-.6-.5-1.14-.72-1.66-.12-.23-.22-.44-.32-.66s-.23-.49-.35-.72-.18-.35-.24-.51l-.71-1.31A.23.23,0,0,1,38,24l4.45,1.2h0l.59.17.64.18.24.07V23a2.3,2.3,0,0,1,2.29-2.32,2.23,2.23,0,0,1,1.61.68A2.31,2.31,0,0,1,48.56,23V27l.47.12.11.06.49.37c.17.13.35.3.56.47.43.34,1,.79,1.51,1.3l.43.4c.72.67,1.53,1.45,2.31,2.33.22.25.43.49.64.76s.45.53.64.79.55.71.8,1.09c.11.18.25.36.35.54a15.74,15.74,0,0,1,.87,1.47c.11.23.23.48.33.72a10.91,10.91,0,0,1,.68,2,2.29,2.29,0,0,1,.09.44v0a3.19,3.19,0,0,1,.08.63,6.64,6.64,0,0,1-.11,2.08c-.06.29-.15.57-.24.87s-.21.57-.33.86a13.08,13.08,0,0,1-.9,1.69c-.11.2-.25.41-.38.61s-.3.42-.43.61-.38.51-.58.75-.36.48-.56.7-.54.64-.82.94a7.29,7.29,0,0,1-.53.58c-.18.2-.36.38-.53.54l-.7.68-.46.41a.35.35,0,0,1-.25.1H48.56v4.54H53a4.11,4.11,0,0,0,2.71-1,34.81,34.81,0,0,0,2.76-2.71.3.3,0,0,1,.17-.1L71,49.07a.37.37,0,0,1,.46.35V52Z"/></svg>