<svg id="TwitterInvt" xmlns="http://www.w3.org/2000/svg" viewBox="0 0 86.15 70"><defs><style>.cls-1{fill:#f8f500;}</style></defs><g id="Logo"><path id="white_background" data-name="white background" class="cls-1" d="M79.26,27.43c0,.75,0,1.51,0,2.28C79.31,53.07,61.53,80,29,80h0a50.07,50.07,0,0,1-27.1-7.93,34.86,34.86,0,0,0,4.21.26,35.45,35.45,0,0,0,22-7.58A17.7,17.7,0,0,1,11.57,52.46a17.5,17.5,0,0,0,8-.3A17.68,17.68,0,0,1,5.37,34.83v-.22a17.51,17.51,0,0,0,8,2.21,17.7,17.7,0,0,1-5.47-23.6A50.2,50.2,0,0,0,44.35,31.69,17.69,17.69,0,0,1,74.47,15.57,35.74,35.74,0,0,0,85.7,11.28a17.74,17.74,0,0,1-7.77,9.77,35.19,35.19,0,0,0,10.15-2.78A36.24,36.24,0,0,1,79.26,27.43Z" transform="translate(-1.92 -10)"/></g></svg>