<?xml version="1.0" encoding="utf-8"?>
<!-- Generator: Adobe Illustrator 26.0.1, SVG Export Plug-In . SVG Version: 6.00 Build 0)  -->
<svg version="1.1" xmlns="http://www.w3.org/2000/svg" xmlns:xlink="http://www.w3.org/1999/xlink" x="0px" y="0px"
	 viewBox="0 0 90 90" style="enable-background:new 0 0 90 90;" xml:space="preserve">
<style type="text/css">
	.st0{display:none;}
	.st1{display:inline;fill:#FFFFFF;}
	.st2{display:inline;fill:#F8F500;}
	.st3{display:inline;}
	.st4{fill:#F8F500;}
	.st5{fill:#FFFFFF;}
</style>
<g id="Opensea" class="st0">
	<path class="st1" d="M45,4.5C22.6,4.5,4.5,22.6,4.5,45S22.6,85.5,45,85.5S85.5,67.4,85.5,45S67.4,4.5,45,4.5z M24.5,46.4l0.2-0.3
		l10.5-16.5c0.2-0.2,0.5-0.2,0.6,0c1.8,3.9,3.3,8.9,2.6,11.9c-0.3,1.3-1.1,3-2.1,4.5c-0.1,0.2-0.3,0.5-0.4,0.7
		c-0.1,0.1-0.2,0.2-0.3,0.2H24.8C24.5,46.9,24.3,46.6,24.5,46.4z M71.4,52c0,0.2-0.1,0.3-0.2,0.3c-0.8,0.3-3.6,1.6-4.8,3.2
		c-3,4.1-5.2,10-10.3,10H35.1c-7.5,0-13.5-6.1-13.5-13.6v-0.2c0-0.2,0.2-0.4,0.4-0.4h11.8c0.2,0,0.4,0.2,0.4,0.4
		c-0.1,0.8,0.1,1.5,0.4,2.3c0.7,1.4,2.1,2.3,3.7,2.3H44v-4.5h-5.8c-0.3,0-0.5-0.3-0.3-0.6c0.1-0.1,0.1-0.2,0.2-0.3
		c0.5-0.8,1.3-2,2.1-3.3c0.5-0.9,1-1.9,1.4-2.9c0.1-0.2,0.1-0.4,0.2-0.5c0.1-0.3,0.2-0.6,0.3-0.9c0.1-0.3,0.2-0.5,0.2-0.8
		c0.2-0.8,0.3-1.7,0.3-2.7c0-0.4,0-0.7,0-1.1c0-0.4-0.1-0.8-0.1-1.2c0-0.3-0.1-0.7-0.2-1.1C42.3,36,42.2,35.5,42,35l0-0.2
		c-0.1-0.4-0.2-0.7-0.3-1.1c-0.3-1.1-0.7-2.2-1.1-3.3c-0.1-0.4-0.3-0.8-0.5-1.2c-0.2-0.6-0.5-1.1-0.7-1.7c-0.1-0.2-0.2-0.4-0.3-0.7
		c-0.1-0.2-0.2-0.5-0.3-0.7c-0.1-0.2-0.2-0.3-0.2-0.5l-0.7-1.3C37.7,24.2,37.8,24,38,24l4.5,1.2h0c0,0,0,0,0,0l0.6,0.2l0.6,0.2
		l0.2,0.1V23c0-1.3,1-2.3,2.3-2.3c0.6,0,1.2,0.3,1.6,0.7c0.4,0.4,0.7,1,0.7,1.6v3.9l0.5,0.1c0,0,0.1,0,0.1,0.1
		c0.1,0.1,0.3,0.2,0.5,0.4c0.2,0.1,0.3,0.3,0.6,0.5c0.4,0.3,0.9,0.8,1.5,1.3c0.1,0.1,0.3,0.3,0.4,0.4c0.7,0.7,1.5,1.5,2.3,2.3
		c0.2,0.3,0.4,0.5,0.6,0.8c0.2,0.3,0.4,0.5,0.6,0.8c0.3,0.3,0.5,0.7,0.8,1.1c0.1,0.2,0.3,0.4,0.4,0.5c0.3,0.5,0.6,1,0.9,1.5
		c0.1,0.2,0.2,0.5,0.3,0.7c0.3,0.7,0.5,1.3,0.7,2c0,0.1,0.1,0.3,0.1,0.4v0c0,0.2,0.1,0.4,0.1,0.6c0.1,0.7,0,1.4-0.1,2.1
		c-0.1,0.3-0.1,0.6-0.2,0.9c-0.1,0.3-0.2,0.6-0.3,0.9c-0.3,0.6-0.5,1.2-0.9,1.7c-0.1,0.2-0.3,0.4-0.4,0.6c-0.1,0.2-0.3,0.4-0.4,0.6
		c-0.2,0.3-0.4,0.5-0.6,0.7c-0.2,0.2-0.4,0.5-0.6,0.7c-0.3,0.3-0.5,0.6-0.8,0.9c-0.2,0.2-0.3,0.4-0.5,0.6c-0.2,0.2-0.4,0.4-0.5,0.5
		c-0.3,0.3-0.5,0.5-0.7,0.7l-0.5,0.4c-0.1,0.1-0.2,0.1-0.2,0.1h-3.5v4.5H53c1,0,1.9-0.3,2.7-1c0.3-0.2,1.4-1.2,2.8-2.7
		c0-0.1,0.1-0.1,0.2-0.1L71,49.1c0.2-0.1,0.5,0.1,0.5,0.3V52L71.4,52z"/>
</g>
<g id="OpenseaInvert" class="st0">
	<path class="st2" d="M45,4.5C22.6,4.5,4.5,22.6,4.5,45S22.6,85.5,45,85.5S85.5,67.4,85.5,45S67.4,4.5,45,4.5z M24.5,46.4l0.2-0.3
		l10.5-16.5c0.2-0.2,0.5-0.2,0.6,0c1.8,3.9,3.3,8.9,2.6,11.9c-0.3,1.3-1.1,3-2.1,4.5c-0.1,0.2-0.3,0.5-0.4,0.7
		c-0.1,0.1-0.2,0.2-0.3,0.2H24.8C24.5,46.9,24.3,46.6,24.5,46.4z M71.4,52c0,0.2-0.1,0.3-0.2,0.3c-0.8,0.3-3.6,1.6-4.8,3.2
		c-3,4.1-5.2,10-10.3,10H35.1c-7.5,0-13.5-6.1-13.5-13.6v-0.2c0-0.2,0.2-0.4,0.4-0.4h11.8c0.2,0,0.4,0.2,0.4,0.4
		c-0.1,0.8,0.1,1.5,0.4,2.3c0.7,1.4,2.1,2.3,3.7,2.3H44v-4.5h-5.8c-0.3,0-0.5-0.3-0.3-0.6c0.1-0.1,0.1-0.2,0.2-0.3
		c0.5-0.8,1.3-2,2.1-3.3c0.5-0.9,1-1.9,1.4-2.9c0.1-0.2,0.1-0.4,0.2-0.5c0.1-0.3,0.2-0.6,0.3-0.9c0.1-0.3,0.2-0.5,0.2-0.8
		c0.2-0.8,0.3-1.7,0.3-2.7c0-0.4,0-0.7,0-1.1c0-0.4-0.1-0.8-0.1-1.2c0-0.3-0.1-0.7-0.2-1.1C42.3,36,42.2,35.5,42,35l0-0.2
		c-0.1-0.4-0.2-0.7-0.3-1.1c-0.3-1.1-0.7-2.2-1.1-3.3c-0.1-0.4-0.3-0.8-0.5-1.2c-0.2-0.6-0.5-1.1-0.7-1.7c-0.1-0.2-0.2-0.4-0.3-0.7
		c-0.1-0.2-0.2-0.5-0.3-0.7c-0.1-0.2-0.2-0.3-0.2-0.5l-0.7-1.3C37.7,24.2,37.8,24,38,24l4.5,1.2h0c0,0,0,0,0,0l0.6,0.2l0.6,0.2
		l0.2,0.1V23c0-1.3,1-2.3,2.3-2.3c0.6,0,1.2,0.3,1.6,0.7c0.4,0.4,0.7,1,0.7,1.6v3.9l0.5,0.1c0,0,0.1,0,0.1,0.1
		c0.1,0.1,0.3,0.2,0.5,0.4c0.2,0.1,0.3,0.3,0.6,0.5c0.4,0.3,0.9,0.8,1.5,1.3c0.1,0.1,0.3,0.3,0.4,0.4c0.7,0.7,1.5,1.5,2.3,2.3
		c0.2,0.3,0.4,0.5,0.6,0.8c0.2,0.3,0.4,0.5,0.6,0.8c0.3,0.3,0.5,0.7,0.8,1.1c0.1,0.2,0.3,0.4,0.4,0.5c0.3,0.5,0.6,1,0.9,1.5
		c0.1,0.2,0.2,0.5,0.3,0.7c0.3,0.7,0.5,1.3,0.7,2c0,0.1,0.1,0.3,0.1,0.4v0c0,0.2,0.1,0.4,0.1,0.6c0.1,0.7,0,1.4-0.1,2.1
		c-0.1,0.3-0.1,0.6-0.2,0.9c-0.1,0.3-0.2,0.6-0.3,0.9c-0.3,0.6-0.5,1.2-0.9,1.7c-0.1,0.2-0.3,0.4-0.4,0.6c-0.1,0.2-0.3,0.4-0.4,0.6
		c-0.2,0.3-0.4,0.5-0.6,0.7c-0.2,0.2-0.4,0.5-0.6,0.7c-0.3,0.3-0.5,0.6-0.8,0.9c-0.2,0.2-0.3,0.4-0.5,0.6c-0.2,0.2-0.4,0.4-0.5,0.5
		c-0.3,0.3-0.5,0.5-0.7,0.7l-0.5,0.4c-0.1,0.1-0.2,0.1-0.2,0.1h-3.5v4.5H53c1,0,1.9-0.3,2.7-1c0.3-0.2,1.4-1.2,2.8-2.7
		c0-0.1,0.1-0.1,0.2-0.1L71,49.1c0.2-0.1,0.5,0.1,0.5,0.3V52L71.4,52z"/>
</g>
<g id="Discord" class="st0">
	<path class="st1" d="M75.3,17.7c-5.7-2.6-11.7-4.4-17.8-5.5c-0.8,1.5-1.6,3.1-2.3,4.6c-6.6-1-13.2-1-19.8,0
		c-0.7-1.6-1.4-3.1-2.3-4.6c-6.2,1.1-12.2,2.9-17.8,5.5C4,34.4,0.9,50.7,2.4,66.8l0,0c6.6,4.9,14,8.6,21.9,11
		c1.8-2.4,3.3-4.9,4.7-7.6c-2.6-1-5-2.1-7.4-3.5c0.6-0.4,1.2-0.9,1.8-1.4c13.9,6.5,29.9,6.5,43.7,0c0.6,0.5,1.2,0.9,1.8,1.4
		c-2.4,1.4-4.8,2.6-7.4,3.5c1.3,2.6,2.9,5.2,4.7,7.5c7.9-2.4,15.3-6.1,21.9-11l0,0C90,48.2,85.1,32,75.3,17.7z M30.9,56.9
		c-4.3,0-7.8-3.9-7.8-8.6s3.4-8.7,7.8-8.7s7.9,3.9,7.8,8.7C38.6,53,35.3,56.9,30.9,56.9z M59.7,56.9c-4.3,0-7.8-3.9-7.8-8.6
		s3.4-8.7,7.8-8.7s7.8,3.9,7.8,8.7S64,56.9,59.7,56.9z"/>
</g>
<g id="DiscordInvert" class="st0">
	<g class="st3">
		<path class="st4" d="M75.3,17.7c-5.7-2.6-11.7-4.4-17.8-5.5c-0.8,1.5-1.6,3.1-2.3,4.6c-6.6-1-13.2-1-19.8,0
			c-0.7-1.6-1.4-3.1-2.3-4.6c-6.2,1.1-12.2,2.9-17.8,5.5C4,34.4,0.9,50.7,2.4,66.8l0,0c6.6,4.9,14,8.6,21.9,11
			c1.8-2.4,3.3-4.9,4.7-7.6c-2.6-1-5-2.1-7.4-3.5c0.6-0.4,1.2-0.9,1.8-1.4c13.9,6.5,29.9,6.5,43.7,0c0.6,0.5,1.2,0.9,1.8,1.4
			c-2.4,1.4-4.8,2.6-7.4,3.5c1.3,2.6,2.9,5.2,4.7,7.5c7.9-2.4,15.3-6.1,21.9-11l0,0C90,48.2,85.1,32,75.3,17.7z M30.9,56.9
			c-4.3,0-7.8-3.9-7.8-8.6s3.4-8.7,7.8-8.7s7.9,3.9,7.8,8.7C38.6,53,35.3,56.9,30.9,56.9z M59.7,56.9c-4.3,0-7.8-3.9-7.8-8.6
			s3.4-8.7,7.8-8.7s7.8,3.9,7.8,8.7S64,56.9,59.7,56.9z"/>
	</g>
</g>
<g id="Twitter">
	<g id="Logo_1_">
		<path id="white_background" class="st5" d="M79.3,27.4c0.1,0.8,0.1,1.5,0.1,2.3C79.3,53.1,61.5,80,29,80v0c-9.6,0-19-2.7-27.1-7.9
			c1.4,0.2,2.8,0.3,4.2,0.3c8,0,15.7-2.7,22-7.6c-7.6-0.1-14.2-5.1-16.5-12.3c2.6,0.5,5.4,0.4,8-0.3c-8.2-1.7-14.2-8.9-14.2-17.3
			c0-0.1,0-0.2,0-0.2c2.5,1.4,5.2,2.1,8,2.2C5.6,31.6,3.2,21.3,7.9,13.2c9,11,22.2,17.8,36.4,18.5c-1.4-6.1,0.5-12.6,5.1-16.9
			c7.1-6.7,18.3-6.3,25,0.8c4-0.8,7.8-2.2,11.2-4.3c-1.3,4.1-4.1,7.6-7.8,9.8c3.5-0.4,6.9-1.4,10.1-2.8
			C85.7,21.8,82.7,24.9,79.3,27.4z"/>
	</g>
</g>
<g id="TwitterInvt" class="st0">
	<g id="Logo_00000098196005184865403870000016164455586481392319_" class="st3">
		<path id="white_background_00000050623715379564500640000001416321951800901253_" class="st4" d="M79.3,27.4
			c0.1,0.8,0.1,1.5,0.1,2.3C79.3,53.1,61.5,80,29,80v0c-9.6,0-19-2.7-27.1-7.9c1.4,0.2,2.8,0.3,4.2,0.3c8,0,15.7-2.7,22-7.6
			c-7.6-0.1-14.2-5.1-16.5-12.3c2.6,0.5,5.4,0.4,8-0.3c-8.2-1.7-14.2-8.9-14.2-17.3c0-0.1,0-0.2,0-0.2c2.5,1.4,5.2,2.1,8,2.2
			C5.6,31.6,3.2,21.3,7.9,13.2c9,11,22.2,17.8,36.4,18.5c-1.4-6.1,0.5-12.6,5.1-16.9c7.1-6.7,18.3-6.3,25,0.8
			c4-0.8,7.8-2.2,11.2-4.3c-1.3,4.1-4.1,7.6-7.8,9.8c3.5-0.4,6.9-1.4,10.1-2.8C85.7,21.8,82.7,24.9,79.3,27.4z"/>
	</g>
</g>
</svg>
