<?xml version="1.0" encoding="utf-8"?>
<!-- Generator: Adobe Illustrator 26.0.2, SVG Export Plug-In . SVG Version: 6.00 Build 0)  -->
<svg version="1.1" id="Layer_1" xmlns="http://www.w3.org/2000/svg" xmlns:xlink="http://www.w3.org/1999/xlink" x="0px" y="0px"
	 viewBox="0 0 50 50" style="enable-background:new 0 0 50 50;" xml:space="preserve">
<g>
	<polygon points="22.2,29.6 30.6,24.7 22.2,19.9 	"/>
	<path d="M1.4,11.3v26.9c0,5.8,4.7,10.5,10.5,10.5h26.9c5.8,0,10.5-4.7,10.5-10.5V11.3c0-5.8-4.7-10.5-10.5-10.5H11.9
		C6.1,0.7,1.4,5.5,1.4,11.3z M41.5,24.8c0,0,0,5.2-0.7,7.8c-0.4,1.4-1.5,2.5-2.8,2.8C35.5,36,25.4,36,25.4,36s-10.1,0-12.6-0.7
		c-1.4-0.4-2.5-1.5-2.8-2.8c-0.7-2.5-0.7-7.8-0.7-7.8s0-5.2,0.7-7.8c0.4-1.4,1.5-2.5,2.8-2.9c2.5-0.7,12.6-0.7,12.6-0.7
		s10.1,0,12.6,0.7c1.4,0.4,2.5,1.5,2.8,2.8l0,0C41.5,19.5,41.5,24.8,41.5,24.8z"/>
</g>
</svg>
